# xmcd
#
# Track frame offsets:
#  150
#  11012
#  29457
#  47675
#  64645
#  76575
#  91505
#  106655
#  123407
#  140692
#  155000
#  178980
#
# Disc length: 2578 seconds
#
# Revision: 0
# Processed by: cddbd v1.5.1PL2 Copyright (c) Steve Scherf et al.
# Submitted via: Collectorz.com_Music_Collector 6.10
#
DISCID=900a100c
DTITLE=Dennis, TJ - TJ's Diner
DYEAR=1998
DGENRE=Australian Country
TTITLE0=I Don't Wanna Know
TTITLE1=Long Last Look
TTITLE2=Anything
TTITLE3=Hello Sunshine
TTITLE4=Look Whose Boots
TTITLE5=Only You Know
TTITLE6=Golden Mile
TTITLE7=I'm Over You
TTITLE8=Can't Tell You
TTITLE9=Treat 'em Mean
TTITLE10=Daddy's Gone
TTITLE11=Bedroom Rodeo
EXTD=
EXTT0=
EXTT1=
EXTT2=
EXTT3=
EXTT4=
EXTT5=
EXTT6=
EXTT7=
EXTT8=
EXTT9=
EXTT10=
EXTT11=
PLAYORDER=
